<svg xmlns="http://www.w3.org/2000/svg" viewBox="0 0 32 32">
  <defs>
    <linearGradient id="fo" x1="0" y1="1" x2="0" y2="0">
      <stop offset="0%" stop-color="#FF4500"/>
      <stop offset="50%" stop-color="#FF8C00"/>
      <stop offset="100%" stop-color="#FFD700"/>
    </linearGradient>
    <linearGradient id="fi" x1="0" y1="1" x2="0" y2="0">
      <stop offset="0%" stop-color="#FF6600"/>
      <stop offset="100%" stop-color="#FFED4A"/>
    </linearGradient>
  </defs>
  <path d="M16 2c-1 3-4 5-5 8-2 4-1 9 2 12s8 3 11 0 3-8 1-12c-1-3-4-5-5-8-1 3-2 5-4 5s-2-2 0-5z" fill="url(#fo)"/>
  <path d="M16 12c-1 2-3 4-3 7s2 5 4 5 4-2 4-5-3-5-5-7z" fill="url(#fi)"/>
  <ellipse cx="17" cy="22" rx="1.5" ry="2.5" fill="#FFF4A0" opacity=".6"/>
</svg>
